# xmcd
#
# Track frame offsets: 
#        150
#        38192
#        62204
#        93671
#        116858
#        142370
#        166272
#        198049
#        225771
#        250903
#
# Disc length: 3678 seconds
#
# Revision: 0
# Processed by: cddbd v1.5.2PL0 Copyright (c) Steve Scherf et al.
# Submitted via: ExactAudioCopy v1.0b3
#
DISCID=890e5c0a
DTITLE=Various Artist - Hard House Vol. 1 - CD 2
DYEAR=1900
DGENRE=
TTITLE0=666 - D.E.V.I.L. (Michael Woods UK Rmx)
TTITLE1=Ibiza United Vs. K.K. Project - DJ... Cut! (Xtd Version)
TTITLE2=DJ Trooper - Da Future (Axel Konrad Rmx)
TTITLE3=Boys On 33 - Slam The Jam (Da Pumped Up Funk) (Xtd Club Mix)
TTITLE4=D-Ultimate - Hammer (Original Mix)
TTITLE5=Dyno - Progress (Boys On 33 Mix)
TTITLE6=Steven Gore - Control Me (Club Mix Section 2)
TTITLE7=JKB - Ibiza (How Are U?) (K.K. Project Killer Mix)
TTITLE8=Trace Elliott - The Techno Wave Is Back (Club Mix)
TTITLE9=Pat Jam - Master And Slave (Extended Mix)
EXTD=
EXTT0=
EXTT1=
EXTT2=
EXTT3=
EXTT4=
EXTT5=
EXTT6=
EXTT7=
EXTT8=
EXTT9=
PLAYORDER=
